<svg id="aaf577bd-cd0a-4883-9079-4e8d2e390cba" data-name="Layer 1" xmlns="http://www.w3.org/2000/svg" viewBox="0 0 269 98"><path d="M196.46,81.62h-9.8a4,4,0,1,1,0-8h9.8a4,4,0,1,1,0,8Z" transform="translate(-7.96 -8.26)" style="fill:#f7931e"/><path d="M129,61.26a4,4,0,0,0,2.83-6.82L100.3,22.94A49.82,49.82,0,0,0,64.86,8.26H12a4,4,0,0,0,0,8h52.9A41.83,41.83,0,0,1,94.64,28.6l31.49,31.49A4,4,0,0,0,129,61.26Z" transform="translate(-7.96 -8.26)" style="fill:#4d4d4d"/><path d="M273,8.26h-52.9a49.78,49.78,0,0,0-35.43,14.68L163.05,44.52a31.44,31.44,0,0,0-4-.26H138a4,4,0,0,0,0,8H159A23.84,23.84,0,0,1,178.91,62.9a22.21,22.21,0,0,1,0,24.72A23.82,23.82,0,0,1,159,98.26H120a4,4,0,0,0,0,8H159a31.84,31.84,0,0,0,26.54-14.2,30.2,30.2,0,0,0,0-33.59A31.75,31.75,0,0,0,171.9,47L190.28,28.6a41.83,41.83,0,0,1,29.78-12.34H273a4,4,0,0,0,0-8Z" transform="translate(-7.96 -8.26)" style="fill:#4d4d4d"/><path d="M183,75.26" transform="translate(-7.96 -8.26)" style="fill:none;stroke:#fff;stroke-linecap:round;stroke-miterlimit:10;stroke-width:9px"/><circle cx="157.5" cy="57.5" r="4.5" style="fill:#4d4d4d"/></svg>